# xmcd
#
# Track frame offsets:
#	150
#	64230
#	115470
#	156540
#	196230
#
# Disc length: 3157 seconds
#
# Revision: 1
# Processed by: cddbd v1.5.2PL0 Copyright (c) Steve Scherf et al.
# Submitted via: audiograbber 1.83.01
#
DISCID=470c5305
DTITLE=Mick Taylor Band - Little Red Rooster
DYEAR=2000
DGENRE=Blues
TTITLE0=Catfish Blues
TTITLE1=Red House
TTITLE2=Little Red Rooster
TTITLE3=You Shock Me
TTITLE4=I Wonder Why
EXTD=
EXTT0=
EXTT1=
EXTT2=
EXTT3=
EXTT4=
PLAYORDER=
